<svg id="Capa_1" data-name="Capa 1" xmlns="http://www.w3.org/2000/svg" viewBox="0 0 700 516.32"><defs><style>.cls-1{fill:#fff;}</style></defs><polygon class="cls-1" points="417.26 31.66 417.26 49.63 350 0 242.42 79.38 242.42 137.92 282.74 137.92 282.74 99.74 350 50.1 417.26 99.74 417.26 137.92 457.58 137.92 457.58 31.66 417.26 31.66"/><path class="cls-1" d="M349.86,267.75A106.87,106.87,0,0,1,243.11,161h40.32c1.57,87.33,131.31,87.27,132.86,0H456.6A106.87,106.87,0,0,1,349.86,267.75Z" transform="translate(0.14 -0.37)"/><polygon class="cls-1" points="0 450.87 19.94 450.87 19.94 387.24 88.26 387.24 88.26 368.41 19.94 368.41 19.94 328.49 90.37 328.49 90.37 309.1 0 309.1 0 450.87"/><polygon class="cls-1" points="297.87 427.05 255.9 309.1 234.53 309.1 286.42 450.87 309.4 450.87 361.29 309.1 340.01 309.1 297.87 427.05"/><rect class="cls-1" x="374.33" y="309.1" width="20.12" height="141.77"/><polygon class="cls-1" points="496.92 426.74 451.71 309.1 422.69 309.1 422.69 450.87 442.63 450.87 442.63 337.52 485.79 450.87 507.81 450.87 550.96 337.52 550.96 450.87 570.9 450.87 570.9 309.1 541.69 309.1 496.92 426.74"/><polygon class="cls-1" points="700 328.49 700 309.1 599.14 309.1 599.14 450.87 700 450.87 700 431.67 619.09 431.67 619.09 387.24 697.7 387.24 697.7 368.41 619.09 368.41 619.09 328.49 700 328.49"/><path class="cls-1" d="M188.21,309.47c-32.18,0-78-7-80.07,38.49,2.64,33.63-14.61,102.1,38.49,103.28,32.18,0,78,7,80.07-38.5C224.06,379.12,241.31,310.64,188.21,309.47Zm0,122.38H146.63a19.13,19.13,0,0,1-19.11-19.1V348a19.13,19.13,0,0,1,19.11-19.1h41.58a19.12,19.12,0,0,1,19.1,19.1v64.79A19.12,19.12,0,0,1,188.21,431.85Z" transform="translate(0.14 -0.37)"/><path class="cls-1" d="M3.68,516.37V490.32H14.89v2.53H6.26v9.09h8v2.51h-8v11.92Z" transform="translate(0.14 -0.37)"/><path class="cls-1" d="M29.73,490q3.56,0,5.16,2.07t1.59,6.77v9q0,4.68-1.59,6.74t-5.16,2.05H27.5q-3.59,0-5.17-2.05t-1.58-6.74v-9q0-4.69,1.58-6.77T27.5,490Zm-.34,2.58H27.82c-1.65,0-2.78.41-3.4,1.25s-.92,2.51-.92,5v9c0,2.49.31,4.16.92,5s1.75,1.26,3.4,1.26h1.57c1.65,0,2.79-.42,3.4-1.26s.92-2.5.92-5v-9c0-2.5-.31-4.17-.92-5S31,492.59,29.39,492.59Z" transform="translate(0.14 -0.37)"/><path class="cls-1" d="M44.13,516.37V490.32h3.8l9.67,23.14V490.32h2.51v26.05h-4l-9.52-22.73v22.73Z" transform="translate(0.14 -0.37)"/><path class="cls-1" d="M68,516.37V490.32h6.54q5,0,7,2.07c1.32,1.38,2,3.85,2,7.39V507c0,3.55-.67,6-2,7.37s-3.67,2-7,2ZM70.6,514h3.45a13.88,13.88,0,0,0,3.57-.36,4,4,0,0,0,2-1.15,4.81,4.81,0,0,0,1-2,16.89,16.89,0,0,0,.28-3.66v-7a16.84,16.84,0,0,0-.28-3.65,4.73,4.73,0,0,0-1-2,4,4,0,0,0-2-1.15,13.88,13.88,0,0,0-3.57-.36H70.6Z" transform="translate(0.14 -0.37)"/><path class="cls-1" d="M100,490q3.56,0,5.16,2.07t1.59,6.77v9q0,4.68-1.59,6.74T100,516.69H97.73q-3.58,0-5.17-2.05T91,507.9v-9q0-4.69,1.58-6.77T97.73,490Zm-.33,2.58H98.05c-1.65,0-2.78.41-3.4,1.25s-.92,2.51-.92,5v9c0,2.49.31,4.16.92,5s1.75,1.26,3.4,1.26h1.58c1.64,0,2.78-.42,3.39-1.26s.92-2.5.92-5v-9c0-2.5-.31-4.17-.92-5S101.27,492.59,99.63,492.59Z" transform="translate(0.14 -0.37)"/><path class="cls-1" d="M126.93,516.37V490.32h6.55q5,0,7,2.07c1.33,1.38,2,3.85,2,7.39V507c0,3.55-.66,6-2,7.37s-3.67,2-7,2Zm2.58-2.4H133a13.88,13.88,0,0,0,3.57-.36,4,4,0,0,0,2-1.15,4.94,4.94,0,0,0,.95-2,17.56,17.56,0,0,0,.28-3.66v-7a17.52,17.52,0,0,0-.28-3.65,4.85,4.85,0,0,0-.95-2,4,4,0,0,0-2-1.15,13.88,13.88,0,0,0-3.57-.36h-3.46Z" transform="translate(0.14 -0.37)"/><path class="cls-1" d="M161.79,513.87v2.5H150.14V490.32h11.65v2.53h-9.07v8.72h8.43v2.52h-8.43v9.78Z" transform="translate(0.14 -0.37)"/><path class="cls-1" d="M185.67,516.37l-6.58-26.05h2.78l5.38,22.56,5.9-22.56h2.59l-7.05,26.05Z" transform="translate(0.14 -0.37)"/><path class="cls-1" d="M201.77,516.37V490.32h2.58v26.05Z" transform="translate(0.14 -0.37)"/><path class="cls-1" d="M217,516.37l-6.58-26.05h2.77l5.39,22.56,5.89-22.56h2.6L220,516.37Z" transform="translate(0.14 -0.37)"/><path class="cls-1" d="M233.1,516.37V490.32h2.58v26.05Z" transform="translate(0.14 -0.37)"/><path class="cls-1" d="M255.34,513.87v2.5H243.69V490.32h11.65v2.53h-9.07v8.72h8.44v2.52h-8.44v9.78Z" transform="translate(0.14 -0.37)"/><path class="cls-1" d="M262,516.37V490.32h3.81l9.66,23.14V490.32H278v26.05h-3.95l-9.52-22.73v22.73Z" transform="translate(0.14 -0.37)"/><path class="cls-1" d="M285.91,516.37V490.32h6.54q5,0,7,2.07c1.33,1.38,2,3.85,2,7.39V507c0,3.55-.66,6-2,7.37s-3.67,2-7,2Zm2.58-2.4h3.45a13.88,13.88,0,0,0,3.57-.36,4,4,0,0,0,2-1.15,4.81,4.81,0,0,0,.95-2,16.89,16.89,0,0,0,.28-3.66v-7a16.84,16.84,0,0,0-.28-3.65,4.73,4.73,0,0,0-.95-2,4,4,0,0,0-2-1.15,13.88,13.88,0,0,0-3.57-.36h-3.45Z" transform="translate(0.14 -0.37)"/><path class="cls-1" d="M306.92,516.37l7.47-26.05h3l7,26.05h-2.79l-1.48-5.59h-9.05l-1.63,5.59Zm4.88-8h7.73l-3.7-14.51Z" transform="translate(0.14 -0.37)"/><path class="cls-1" d="M342.74,516.37V490.32h4.12l7.26,22.93,7.81-22.93h3.95v26.05h-2.37V492.55l-8.09,23.82h-2.63l-7.68-23.82v23.82Z" transform="translate(0.14 -0.37)"/><path class="cls-1" d="M373.85,516.37V490.32h2.58v26.05Z" transform="translate(0.14 -0.37)"/><path class="cls-1" d="M384.45,516.37V490.32H387v23.51h7.74v2.54Z" transform="translate(0.14 -0.37)"/><path class="cls-1" d="M400.42,516.37V490.32H403v26.05Z" transform="translate(0.14 -0.37)"/><path class="cls-1" d="M414.68,516.37V492.88H409.1v-2.52h13.74v2.52h-5.58v23.49Z" transform="translate(0.14 -0.37)"/><path class="cls-1" d="M425,516.37l7.47-26.05h3l7,26.05h-2.78l-1.48-5.59h-9.05l-1.63,5.59Zm4.88-8h7.73l-3.7-14.51Z" transform="translate(0.14 -0.37)"/><path class="cls-1" d="M450.85,506v10.38h-2.58V490.32h7.33q4.51,0,6,1.37c1,.91,1.46,2.62,1.46,5.11v2.4a6.35,6.35,0,0,1-1,3.82,4.32,4.32,0,0,1-3.05,1.57,4.25,4.25,0,0,1,2.83,1.68,6.46,6.46,0,0,1,.9,3.7v6.4h-2.58v-5.21q0-3.11-1-4.14c-.66-.69-1.95-1-3.86-1Zm4.35-13.23h-4.35v10.72h4.35c2.13,0,3.49-.28,4.1-.83a4.35,4.35,0,0,0,.9-3.2v-3.37a3.28,3.28,0,0,0-.85-2.63C458.78,493,457.4,492.76,455.2,492.76Z" transform="translate(0.14 -0.37)"/><path class="cls-1" d="M483.09,516.37V490.32h6.54q5,0,7,2.07c1.32,1.38,2,3.85,2,7.39V507c0,3.55-.67,6-2,7.37s-3.67,2-7,2Zm2.57-2.4h3.46a13.88,13.88,0,0,0,3.57-.36,4,4,0,0,0,2-1.15,4.81,4.81,0,0,0,.95-2,16.89,16.89,0,0,0,.28-3.66v-7a16.84,16.84,0,0,0-.28-3.65,4.73,4.73,0,0,0-.95-2,4,4,0,0,0-2-1.15,13.88,13.88,0,0,0-3.57-.36h-3.46Z" transform="translate(0.14 -0.37)"/><path class="cls-1" d="M517.94,513.87v2.5H506.29V490.32h11.65v2.53h-9.07v8.72h8.44v2.52h-8.44v9.78Z" transform="translate(0.14 -0.37)"/><path class="cls-1" d="M524.62,516.37V490.32h2.58v23.51h7.74v2.54Z" transform="translate(0.14 -0.37)"/><path class="cls-1" d="M564.75,513.87v2.5H553.1V490.32h11.65v2.53h-9.07v8.72h8.44v2.52h-8.44v9.78Z" transform="translate(0.14 -0.37)"/><path class="cls-1" d="M582.43,490.32v20.3q0,3.45-1.38,4.76t-5,1.31q-3.62,0-5-1.31t-1.37-4.76v-3h2.58v2.06c0,1.82.26,3,.79,3.66a3.76,3.76,0,0,0,2.95.93,3.8,3.8,0,0,0,3-1c.54-.63.81-1.84.81-3.64V490.32Z" transform="translate(0.14 -0.37)"/><path class="cls-1" d="M601.9,513.87v2.5H590.25V490.32H601.9v2.53h-9.07v8.72h8.44v2.52h-8.44v9.78Zm-8.23-25.79,3.67-6.16h3.12l-4.93,6.16Z" transform="translate(0.14 -0.37)"/><path class="cls-1" d="M611.16,506v10.38h-2.58V490.32h7.33q4.51,0,6,1.37c1,.91,1.46,2.62,1.46,5.11v2.4a6.35,6.35,0,0,1-1,3.82,4.32,4.32,0,0,1-3.06,1.57,4.25,4.25,0,0,1,2.84,1.68,6.46,6.46,0,0,1,.9,3.7v6.4h-2.58v-5.21q0-3.11-1-4.14c-.66-.69-2-1-3.87-1Zm4.35-13.23h-4.35v10.72h4.35c2.13,0,3.49-.28,4.09-.83s.91-1.63.91-3.2v-3.37a3.28,3.28,0,0,0-.85-2.63C619.09,493,617.71,492.76,615.51,492.76Z" transform="translate(0.14 -0.37)"/><path class="cls-1" d="M645.22,507.62c0,.18,0,.37,0,.59s0,.53,0,.94q0,3.86-1.49,5.7a5.6,5.6,0,0,1-4.62,1.84h-2.51a7.11,7.11,0,0,1-3-.59,4.53,4.53,0,0,1-2-1.67,6.3,6.3,0,0,1-.85-2.16,20.19,20.19,0,0,1-.26-3.77v-9.65q0-4.69,1.59-6.77t5.17-2.07h1.35q3.54,0,5.08,1.74t1.53,5.77c0,.32,0,.57,0,.74s0,.33,0,.47h-2.77v-.32c0-2.26-.28-3.79-.85-4.6a3.41,3.41,0,0,0-3-1.22h-1.4a3.42,3.42,0,0,0-3.07,1.26c-.57.84-.85,2.51-.85,5v8.75q0,4.39.77,5.47c.5.72,1.56,1.08,3.15,1.08h1.4c1.57,0,2.6-.35,3.11-1s.77-2.31.77-4.85v-.65Z" transform="translate(0.14 -0.37)"/><path class="cls-1" d="M652.13,516.37V490.32h2.58v26.05Z" transform="translate(0.14 -0.37)"/><path class="cls-1" d="M666.39,516.37V492.88h-5.58v-2.52h13.74v2.52H669v23.49Z" transform="translate(0.14 -0.37)"/><path class="cls-1" d="M689.28,490q3.56,0,5.16,2.07t1.59,6.77v9q0,4.68-1.59,6.74t-5.16,2.05h-2.23c-2.38,0-4.11-.68-5.16-2.05s-1.59-3.62-1.59-6.74v-9q0-4.69,1.59-6.77c1.05-1.38,2.78-2.07,5.16-2.07Zm-.33,2.58h-1.58c-1.65,0-2.78.41-3.4,1.25s-.92,2.51-.92,5v9c0,2.49.31,4.16.92,5s1.75,1.26,3.4,1.26H689q2.47,0,3.39-1.26c.61-.83.92-2.5.92-5v-9c0-2.5-.31-4.17-.92-5S690.6,492.59,689,492.59Z" transform="translate(0.14 -0.37)"/></svg>