<svg id="Capa_1" data-name="Capa 1" xmlns="http://www.w3.org/2000/svg" viewBox="0 0 700 186.81"><defs><style>.cls-1{fill:#004876;}.cls-2{fill:#00bc70;}</style></defs><polygon class="cls-1" points="122.16 22.12 122.16 34.68 75.16 0 0 55.46 0 96.36 28.17 96.36 28.17 69.68 75.16 35.01 122.16 69.68 122.16 96.36 150.32 96.36 150.32 22.12 122.16 22.12"/><path class="cls-2" d="M74.69,187A74.67,74.67,0,0,1,.11,112.45H28.28a46.41,46.41,0,0,0,92.82,0h28.17A74.66,74.66,0,0,1,74.69,187Z" transform="translate(0.47 -0.22)"/><polygon class="cls-1" points="210.94 142.93 224.88 142.93 224.88 98.47 272.61 98.47 272.61 85.31 224.88 85.31 224.88 57.42 274.08 57.42 274.08 43.88 210.94 43.88 210.94 142.93"/><polygon class="cls-1" points="419.05 126.28 389.73 43.88 374.8 43.88 411.05 142.93 427.11 142.93 463.36 43.88 448.49 43.88 419.05 126.28"/><rect class="cls-1" x="472.47" y="43.88" width="14.06" height="99.05"/><polygon class="cls-1" points="558.12 126.07 526.53 43.88 506.26 43.88 506.26 142.93 520.19 142.93 520.19 63.73 550.34 142.93 565.72 142.93 595.87 63.73 595.87 142.93 609.81 142.93 609.81 43.88 589.4 43.88 558.12 126.07"/><polygon class="cls-1" points="700 57.42 700 43.88 629.54 43.88 629.54 142.93 700 142.93 700 129.51 643.47 129.51 643.47 98.47 698.39 98.47 698.39 85.31 643.47 85.31 643.47 57.42 700 57.42"/><path class="cls-1" d="M342.07,44.1H313A26.93,26.93,0,0,0,286.12,71v45.26a26.93,26.93,0,0,0,26.9,26.9h29.05A26.93,26.93,0,0,0,369,116.25V71A26.92,26.92,0,0,0,342.07,44.1Zm0,85.5H313a13.37,13.37,0,0,1-13.35-13.35V71A13.37,13.37,0,0,1,313,57.64h29.05A13.36,13.36,0,0,1,355.41,71v45.26A13.36,13.36,0,0,1,342.07,129.6Z" transform="translate(0.47 -0.22)"/></svg>